<svg width="33" height="28" viewBox="0 0 33 28" fill="none" xmlns="http://www.w3.org/2000/svg">
<rect x="0.5" y="0.5" width="32" height="27" rx="9" fill="white"/>
<rect x="0.5" y="0.5" width="32" height="27" rx="9" stroke="black"/>
<path d="M17 5.7703C19.5174 5.7703 19.8157 5.77973 20.81 5.82516C21.4077 5.83212 21.9998 5.94201 22.5603 6.15001C22.97 6.30096 23.3405 6.54204 23.6446 6.85544C23.958 7.15946 24.199 7.53002 24.35 7.93973C24.558 8.50017 24.6679 9.09226 24.6748 9.69001C24.7203 10.6843 24.7297 10.9826 24.7297 13.5C24.7297 16.0174 24.7203 16.3157 24.6748 17.31C24.6679 17.9078 24.558 18.4999 24.35 19.0603C24.1931 19.467 23.9528 19.8363 23.6445 20.1446C23.3363 20.4528 22.967 20.6931 22.5603 20.85C21.9998 21.058 21.4077 21.1679 20.81 21.1749C19.8157 21.2203 19.5174 21.2297 17 21.2297C14.4826 21.2297 14.1843 21.2203 13.19 21.1749C12.5922 21.1679 12.0001 21.058 11.4397 20.85C11.03 20.6991 10.6594 20.458 10.3554 20.1446C10.042 19.8406 9.80093 19.47 9.64998 19.0603C9.44198 18.4999 9.33209 17.9078 9.32513 17.31C9.2797 16.3157 9.27027 16.0174 9.27027 13.5C9.27027 10.9826 9.2797 10.6843 9.32513 9.69001C9.33209 9.09226 9.44198 8.50017 9.64998 7.93973C9.80093 7.53002 10.042 7.15946 10.3554 6.85544C10.6594 6.54204 11.03 6.30096 11.4397 6.15001C12.0001 5.94201 12.5922 5.83212 13.19 5.82516C14.1843 5.77973 14.4826 5.7703 17 5.7703ZM17 4.07144C14.4397 4.07144 14.1183 4.08258 13.1128 4.12801C12.3308 4.14418 11.557 4.29226 10.8243 4.56601C10.1973 4.80873 9.62804 5.17989 9.15302 5.65565C8.678 6.13141 8.30773 6.70125 8.06598 7.32858C7.79223 8.06136 7.64414 8.83508 7.62798 9.61716C7.58255 10.6183 7.57141 10.9397 7.57141 13.5C7.57141 16.0603 7.58255 16.3817 7.62798 17.3872C7.64414 18.1692 7.79223 18.943 8.06598 19.6757C8.3087 20.3027 8.67986 20.872 9.15562 21.347C9.63137 21.822 10.2012 22.1923 10.8286 22.434C11.5613 22.7078 12.3351 22.8559 13.1171 22.872C14.1183 22.9174 14.4397 22.9286 17 22.9286C19.5603 22.9286 19.8817 22.9174 20.8871 22.872C21.6692 22.8559 22.4429 22.7078 23.1757 22.434C23.8027 22.1913 24.3719 21.8201 24.8469 21.3444C25.322 20.8686 25.6922 20.2988 25.934 19.6714C26.2077 18.9387 26.3558 18.1649 26.372 17.3829C26.4174 16.3817 26.4286 16.0603 26.4286 13.5C26.4286 10.9397 26.4174 10.6183 26.372 9.61287C26.3558 8.8308 26.2077 8.05707 25.934 7.3243C25.6913 6.69734 25.3201 6.12807 24.8444 5.65305C24.3686 5.17803 23.7987 4.80776 23.1714 4.56601C22.4386 4.29226 21.6649 4.14418 20.8828 4.12801C19.8817 4.08258 19.5603 4.07144 17 4.07144Z" fill="#3A4860"/>
<path d="M17 8.65799C16.0423 8.65799 15.1062 8.94197 14.3099 9.47401C13.5136 10.0061 12.893 10.7623 12.5265 11.647C12.1601 12.5318 12.0642 13.5054 12.251 14.4446C12.4378 15.3839 12.899 16.2466 13.5762 16.9238C14.2533 17.601 15.1161 18.0621 16.0553 18.249C16.9946 18.4358 17.9682 18.3399 18.8529 17.9734C19.7377 17.6069 20.4939 16.9863 21.0259 16.1901C21.558 15.3938 21.842 14.4576 21.842 13.5C21.842 12.2158 21.3318 10.9842 20.4238 10.0762C19.5157 9.16813 18.2841 8.65799 17 8.65799ZM17 16.6431C16.3783 16.6431 15.7706 16.4588 15.2537 16.1134C14.7368 15.768 14.334 15.2772 14.0961 14.7028C13.8582 14.1285 13.7959 13.4965 13.9172 12.8868C14.0385 12.2771 14.3378 11.717 14.7774 11.2775C15.217 10.8379 15.7771 10.5385 16.3868 10.4172C16.9965 10.296 17.6285 10.3582 18.2028 10.5961C18.7771 10.834 19.268 11.2369 19.6134 11.7538C19.9588 12.2706 20.1431 12.8783 20.1431 13.5C20.1431 14.3336 19.812 15.1331 19.2225 15.7225C18.633 16.312 17.8336 16.6431 17 16.6431Z" fill="#3A4860"/>
<path d="M22.0332 9.59828C22.658 9.59828 23.1646 9.09172 23.1646 8.46685C23.1646 7.84198 22.658 7.33542 22.0332 7.33542C21.4083 7.33542 20.9017 7.84198 20.9017 8.46685C20.9017 9.09172 21.4083 9.59828 22.0332 9.59828Z" fill="#3A4860"/>
</svg>
