<svg  viewBox="0 0 19 19" fill="none" xmlns="http://www.w3.org/2000/svg">
<path d="M14.125 17.5C15.989 17.5 17.5 15.989 17.5 14.125C17.5 12.261 15.989 10.75 14.125 10.75C12.261 10.75 10.75 12.261 10.75 14.125C10.75 15.989 12.261 17.5 14.125 17.5Z" stroke="black" stroke-width="1.5" stroke-linecap="round" stroke-linejoin="round"/>
<path d="M4.375 17.5C6.23896 17.5 7.75 15.989 7.75 14.125C7.75 12.261 6.23896 10.75 4.375 10.75C2.51104 10.75 1 12.261 1 14.125C1 15.989 2.51104 17.5 4.375 17.5Z" stroke="black" stroke-width="1.5" stroke-linecap="round" stroke-linejoin="round"/>
<path d="M14.125 7.75C15.989 7.75 17.5 6.23896 17.5 4.375C17.5 2.51104 15.989 1 14.125 1C12.261 1 10.75 2.51104 10.75 4.375C10.75 6.23896 12.261 7.75 14.125 7.75Z" stroke="black" stroke-width="1.5" stroke-linecap="round" stroke-linejoin="round"/>
<path d="M4.375 7.75C6.23896 7.75 7.75 6.23896 7.75 4.375C7.75 2.51104 6.23896 1 4.375 1C2.51104 1 1 2.51104 1 4.375C1 6.23896 2.51104 7.75 4.375 7.75Z" stroke="black" stroke-width="1.5" stroke-linecap="round" stroke-linejoin="round"/>
</svg>
