<svg width="33" height="28" viewBox="0 0 33 28" fill="none" xmlns="http://www.w3.org/2000/svg">
<rect x="0.5" y="0.5" width="32" height="27" rx="9" fill="white"/>
<rect x="0.5" y="0.5" width="32" height="27" rx="9" stroke="black"/>
<path d="M24.2228 8.93403C23.6928 9.16229 23.1357 9.32124 22.5652 9.40695C22.8319 9.36118 23.2244 8.88064 23.3806 8.68613C23.618 8.39274 23.7989 8.05781 23.9141 7.69835C23.9141 7.67165 23.9408 7.63351 23.9141 7.61444C23.9006 7.6071 23.8856 7.60325 23.8703 7.60325C23.855 7.60325 23.8399 7.6071 23.8265 7.61444C23.207 7.95023 22.5476 8.2065 21.8641 8.37721C21.8402 8.38449 21.8149 8.38514 21.7908 8.3791C21.7666 8.37305 21.7445 8.36053 21.7269 8.34288C21.6737 8.27947 21.6164 8.21959 21.5554 8.16364C21.2766 7.91362 20.9603 7.70899 20.6181 7.55723C20.1561 7.36753 19.657 7.28537 19.1587 7.31696C18.6751 7.34753 18.203 7.47735 17.7716 7.69835C17.3469 7.93134 16.9737 8.24788 16.6742 8.62892C16.3593 9.02112 16.1319 9.47627 16.0074 9.96376C15.9047 10.4275 15.8931 10.9067 15.9731 11.3749C15.9731 11.455 15.9731 11.4664 15.9045 11.455C13.1877 11.0545 10.9586 10.0896 9.13718 8.01871C9.05716 7.92718 9.01524 7.92718 8.95046 8.01871C8.15789 9.22389 8.54274 11.1308 9.53347 12.0728C9.66683 12.1987 9.804 12.3207 9.9488 12.4351C9.49457 12.4029 9.05142 12.2797 8.64563 12.0728C8.56942 12.0232 8.5275 12.0499 8.52369 12.1415C8.51289 12.2684 8.51289 12.396 8.52369 12.5229C8.6032 13.131 8.84265 13.7071 9.21757 14.1923C9.5925 14.6774 10.0894 15.0542 10.6575 15.2841C10.796 15.3434 10.9404 15.3882 11.0881 15.4176C10.6676 15.5004 10.2363 15.5133 9.81162 15.4557C9.72017 15.4366 9.68588 15.4862 9.72017 15.5739C10.2803 17.0995 11.4958 17.5648 12.3875 17.824C12.5094 17.8432 12.6314 17.8432 12.7685 17.8737C12.7685 17.8737 12.7685 17.8737 12.7457 17.8965C12.4828 18.3771 11.4196 18.7013 10.9319 18.8691C10.0417 19.1891 9.09248 19.3115 8.15027 19.2276C8.00166 19.2046 7.96737 19.2085 7.92926 19.2276C7.89116 19.2466 7.92926 19.2886 7.97118 19.3268C8.1617 19.4526 8.35222 19.5632 8.55037 19.67C9.14024 19.992 9.76386 20.2478 10.4099 20.4327C13.7554 21.3557 17.5201 20.6769 20.0312 18.1787C22.0051 16.2185 22.6985 13.5145 22.6985 10.8066C22.6985 10.7036 22.8243 10.6426 22.8967 10.5892C23.3961 10.1998 23.8363 9.73989 24.2037 9.22389C24.2673 9.14696 24.3 9.04903 24.2951 8.94928C24.2951 8.89208 24.2951 8.90351 24.2228 8.93403Z" fill="black"/>
</svg>
