<svg  viewBox="0 0 18 18" fill="none" xmlns="http://www.w3.org/2000/svg">
<path d="M1.52942 14.8117C1.32221 15.1703 1.44499 15.629 1.80365 15.8363C2.16231 16.0435 2.62103 15.9207 2.82824 15.562L1.52942 14.8117ZM15.1717 15.5622C15.3789 15.9208 15.8376 16.0436 16.1963 15.8364C16.5549 15.6292 16.6777 15.1705 16.4705 14.8118L15.1717 15.5622ZM2.82824 15.562C3.45397 14.479 4.35369 13.5796 5.43703 12.9544L4.68722 11.6552C3.3759 12.4121 2.28683 13.5007 1.52942 14.8117L2.82824 15.562ZM5.43703 12.9544C6.52037 12.3291 7.74917 12 8.99999 12L9.00001 10.5C7.48595 10.5 5.99855 10.8984 4.68722 11.6552L5.43703 12.9544ZM8.99999 12C10.2508 12 11.4796 12.3292 12.5629 12.9545L13.3128 11.6553C12.0015 10.8985 10.5141 10.5 9.00001 10.5L8.99999 12ZM12.5629 12.9545C13.6463 13.5797 14.546 14.4791 15.1717 15.5622L16.4705 14.8118C15.7131 13.5008 14.6241 12.4122 13.3128 11.6553L12.5629 12.9545ZM12.7499 6.75C12.7499 8.82109 11.071 10.5 9 10.5V12C11.8995 12 14.2499 9.64948 14.2499 6.75H12.7499ZM9 10.5C6.92891 10.5 5.24992 8.82105 5.24992 6.75H3.74992C3.74992 9.64951 6.10052 12 9 12V10.5ZM5.24992 6.75C5.24992 4.67893 6.92885 3 8.99992 3V1.5C6.10042 1.5 3.74992 3.8505 3.74992 6.75H5.24992ZM8.99992 3C11.071 3 12.7499 4.67893 12.7499 6.75H14.2499C14.2499 3.8505 11.8994 1.5 8.99992 1.5V3Z" fill="#2B3241"/>
</svg>
